<?xml version="1.0" encoding="UTF-8"?>
<svg id="Dove" xmlns="http://www.w3.org/2000/svg" viewBox="0 0 829.8 220.7">
  <defs>
    <style>
      .cls-1 {
        fill: #51a1d7;
      }

      .cls-2 {
        fill: #438ad7;
      }

      .cls-3 {
        fill: #94d5e4;
      }

      .cls-4 {
        fill: #4db9d2;
      }

      .cls-5 {
        fill: #2b63bc;
      }
    </style>
  </defs>
  <g>
    <g>
      <g>
        <polygon class="cls-3" points="122.63 138.95 122.63 139 122.6 138.95 122.63 138.95"/>
        <polygon class="cls-1" points="220.7 89.91 149.85 160.76 147.13 155.31 122.61 106.25 114.43 89.91 220.7 89.91"/>
        <polygon class="cls-2" points="220.7 89.9 114.43 89.9 147.13 16.34 179.83 49.04 220.7 89.9"/>
        <polygon class="cls-5" points="220.71 32.69 220.71 89.91 179.83 49.05 220.71 32.69"/>
        <polygon class="cls-2" points="261.58 65.39 220.71 65.39 220.71 32.69 261.58 65.39"/>
      </g>
      <path class="cls-4" d="M114.43,188h.02v-8.18h-.02v8.18ZM114.44,138.95v8.18h.02v-8.18h-.02ZM114.44,155.29v16.36h.02v-16.36h-.02Z"/>
      <path class="cls-2" d="M149.85,160.76l-2.72-5.46-24.52-49.05-8.18-16.34v49.04h.02v8.18h-.02v8.16h.02v16.36h-.02v8.18h.02v8.18h-.02v32.7l40.87-49.05-5.46-10.88ZM122.63,139l-.03-.05h.03v.05Z"/>
      <rect class="cls-2" x="32.7" y="32.68" width="16.34" height="16.36"/>
      <rect class="cls-2" x="16.34" y="16.34" width="16.35" height="16.35"/>
      <rect class="cls-1" width="16.35" height="16.35"/>
      <rect class="cls-2" x="65.4" y="65.38" width="16.34" height="16.36"/>
      <rect class="cls-1" x="49.05" y="65.39" width="16.35" height="16.35"/>
      <rect class="cls-1" x="32.7" y="81.74" width="16.35" height="16.35"/>
      <rect class="cls-1" y="49.04" width="16.35" height="16.35"/>
    </g>
    <polygon class="cls-5" points="147.13 16.34 114.43 89.9 98.09 89.9 98.09 81.74 81.74 81.74 81.74 65.38 65.4 65.38 65.4 49.04 49.04 49.04 49.04 32.68 32.7 32.68 32.7 16.36 32.68 16.34 147.13 16.34"/>
  </g>
  <g>
    <path class="cls-5" d="M292.14,71.73h16.67v61.75h36.92v14h-53.58v-75.76Z"/>
    <path class="cls-5" d="M354.18,109.5c.85-14.11,13.47-18.35,25.78-18.35,10.93,0,24.09,2.44,24.09,15.59v28.54c0,4.98.53,9.97,1.91,12.2h-15.28c-.53-1.69-.95-3.5-1.06-5.3-4.77,4.98-11.78,6.79-18.46,6.79-10.39,0-18.67-5.2-18.67-16.45,0-12.41,9.34-15.38,18.67-16.66,9.24-1.37,17.83-1.06,17.83-7.21,0-6.47-4.46-7.43-9.76-7.43-5.73,0-9.44,2.34-9.98,8.28h-15.06ZM388.98,120.64c-2.55,2.23-7.85,2.33-12.52,3.18-4.67.96-8.92,2.55-8.92,8.07s4.35,7,9.23,7c11.78,0,12.21-9.34,12.21-12.62v-5.62Z"/>
    <path class="cls-5" d="M416.77,71.73h15.07v27.59h.22c3.71-5.62,10.51-8.16,17.3-8.16,10.93,0,22.7,8.8,22.7,28.86s-11.78,28.97-22.7,28.97c-8.07,0-14.76-2.44-18.04-8.49h-.22v7.01h-14.32v-75.76ZM444.14,102.5c-8.92,0-12.84,8.38-12.84,17.61s3.92,17.51,12.84,17.51,12.84-8.38,12.84-17.51-3.93-17.61-12.84-17.61Z"/>
    <path class="cls-5" d="M483.81,71.73h53.27v14h-36.6v17.51h31.72v12.94h-31.72v31.3h-16.67v-75.76Z"/>
    <path class="cls-5" d="M546.2,71.73h40.86c13.58,0,22.17,9.44,22.17,20.91,0,8.91-3.6,15.59-11.98,18.99v.22c8.16,2.12,10.51,10.07,11.03,17.71.32,4.78.22,13.69,3.18,17.94h-16.66c-2.01-4.78-1.81-12.1-2.65-18.14-1.17-7.96-4.24-11.46-12.62-11.46h-16.66v29.6h-16.67v-75.76ZM562.87,106h18.25c7.43,0,11.46-3.18,11.46-10.83s-4.03-10.5-11.46-10.5h-18.25v21.32Z"/>
    <path class="cls-5" d="M623.1,71.73h56.67v14h-40v16.23h36.71v12.95h-36.71v18.57h40.85v14h-57.51v-75.76Z"/>
    <path class="cls-5" d="M692.92,71.73h56.67v14h-40v16.23h36.71v12.95h-36.71v18.57h40.85v14h-57.51v-75.76Z"/>
    <path class="cls-5" d="M762.75,71.73h32.68c19.63,0,34.38,12.31,34.38,37.45,0,21.97-11.25,38.31-34.38,38.31h-32.68v-75.76ZM779.41,133.48h14.85c9.66,0,18.89-5.94,18.89-22.7,0-15.28-5.3-25.05-21.86-25.05h-11.88v47.75Z"/>
  </g>
</svg>