<?xml version="1.0" encoding="UTF-8"?>
<svg id="Dove" xmlns="http://www.w3.org/2000/svg" viewBox="0 0 247 233" width="100" height="94.3">
  <defs>
    <style>
      .cls-1 {
        fill: #51a1d7;
      }

      .cls-2 {
        fill: #438ad7;
      }

      .cls-3 {
        fill: #94d5e4;
      }

      .cls-4 {
        fill: #4db9d2;
      }

      .cls-5 {
        fill: #2b63bc;
      }
    </style>
  </defs>
  <g>
    <g>
      <polygon class="cls-3" points="115.8 143.51 115.8 143.55 115.77 143.51 115.8 143.51"/>
      <polygon class="cls-1" points="208.4 97.2 141.5 164.1 138.93 158.95 115.78 112.63 108.05 97.2 208.4 97.2"/>
      <polygon class="cls-2" points="208.4 97.19 108.05 97.19 138.93 27.74 169.8 58.61 208.4 97.19"/>
      <polygon class="cls-5" points="208.4 43.17 208.4 97.2 169.81 58.62 208.4 43.17"/>
      <polygon class="cls-2" points="247 74.05 208.4 74.05 208.4 43.17 247 74.05"/>
    </g>
    <path class="cls-4" d="M108.05,189.82h.02v-7.72h-.02v7.72ZM108.06,143.51v7.72h.02v-7.72h-.02ZM108.06,158.93v15.45h.02v-15.45h-.02Z"/>
    <path class="cls-2" d="M141.5,164.1l-2.57-5.15-23.15-46.32-7.72-15.43v46.3h.02v7.72h-.02v7.71h.02v15.45h-.02v7.72h.02v7.72h-.02v30.87l38.6-46.32-5.15-10.27ZM115.8,143.55l-.03-.05h.03v.05Z"/>
    <rect class="cls-2" x="30.88" y="43.16" width="15.43" height="15.45"/>
    <rect class="cls-2" x="15.43" y="27.73" width="15.44" height="15.44"/>
    <rect class="cls-1" y="12.3" width="15.44" height="15.44"/>
    <rect class="cls-2" x="61.75" y="74.04" width="15.43" height="15.45"/>
    <rect class="cls-1" x="46.32" y="74.05" width="15.44" height="15.44"/>
    <rect class="cls-1" x="30.87" y="89.49" width="15.44" height="15.44"/>
    <rect class="cls-1" y="58.61" width="15.44" height="15.44"/>
  </g>
  <polygon class="cls-5" points="138.93 27.74 108.05 97.19 92.63 97.19 92.63 89.48 77.18 89.48 77.18 74.04 61.75 74.04 61.75 58.61 46.31 58.61 46.31 43.16 30.88 43.16 30.88 27.75 30.86 27.74 138.93 27.74"/>
</svg>